<svg xmlns="http://www.w3.org/2000/svg" shape-rendering="geometricPrecision" text-rendering="geometricPrecision" image-rendering="optimizeQuality" fill-rule="evenodd" clip-rule="evenodd" viewBox="0 0 512 476.32"><path d="M57.239 260.797c37.389-3.038 51.133-41.882 55.74-82.159 7.017-61.661-2.718-140.994 71.492-170.989 58.927-23.831 135.128 8.249 143.438 93.147-.302 50.268 11.982 131.216 49.305 153.994a112.451 112.451 0 0122.853-2.337c30.905 0 58.892 12.533 79.147 32.786C499.47 305.494 512 333.481 512 364.387c0 30.905-12.53 58.892-32.786 79.148-20.255 20.255-48.242 32.785-79.147 32.785-30.906 0-58.893-12.53-79.148-32.785a112.248 112.248 0 01-16.761-21.413H0c5.348-52.685 12.509-86.183 64.518-118.79 11.091-6.953 23.885-13.311 37.575-19.349-21.75-2.593-40.588-11.173-44.854-23.186zm234.221 76.412c4.618-18.505 13.835-35.191 26.375-48.76a283.74 283.74 0 00-5.741-7.5c-24.515-3.73-45.317-14.182-47.182-33.029a84.386 84.386 0 01-6.426 3.686c-10.906 5.657-23.022 8.825-35.196 9.227-15.114.495-30.35-3.243-43.553-11.724-4.868 18.214-21.042 28.626-40.147 33.081-10.416 13.3-19.653 27.489-27.508 43.251l34.616-.844 79.632 69.247 65.13-56.635zm-91.937 15.088l15.774-54.743-7.734-8.459c-3.49-5.084-4.246-9.537-2.313-13.364 4.185-8.285 12.855-6.742 20.948-6.742 8.485 0 18.959-1.605 21.614 9.012.886 3.55-.23 7.267-2.714 11.094l-7.734 8.459 15.774 54.743-26.808 21.181-26.807-21.181zm181.58-33.771l-.013-2.481c.077-5.233 1.087-8.668 8.448-8.555l18.86.233c3.919-.018 6.525.754 8.317 2.661 1.771 1.889 2.37 4.515 2.33 8.252l.014 26.21c9.237 0 18.476.039 27.711-.007 5.15.075 8.534 1.074 8.426 8.644l-.227 19.521c.018 3.991-.712 6.647-2.529 8.475-1.856 1.867-4.438 2.502-8.112 2.458l-25.269.013-.011 26.45c.009 3.605-.604 6.153-2.333 7.992-1.79 1.911-4.4 2.68-8.319 2.66l-18.858.234c-7.357.113-8.369-3.322-8.45-8.556.046-9.591.008-19.188.004-28.78l-25.546-.011c-3.538.011-6.043-.637-7.853-2.46-1.817-1.828-2.546-4.484-2.529-8.475l-.226-19.521c-.106-7.566 3.275-8.571 8.425-8.642 9.242.047 18.488.009 27.729.005l.011-26.32zm18.964-49.244c52.525 0 95.104 42.579 95.104 95.105 0 52.525-42.579 95.104-95.104 95.104-52.526 0-95.105-42.579-95.105-95.104 0-52.526 42.579-95.105 95.105-95.105zm-127.889-40.656c32.8-36.276 37.78-72.79 28.433-119.385-22.549-10.452-37.299-33.427-44.854-67.946-9.028 65.717-89.734 62.898-110.029 74.855 0 40.405-2.437 81.937 27.336 114.041 27.118 29.242 73.482 25.58 99.114-1.565z"/></svg>